<svg width="18" height="18" viewBox="0 0 18 18" fill="none" xmlns="http://www.w3.org/2000/svg">
<mask id="mask0_0_39" style="mask-type:alpha" maskUnits="userSpaceOnUse" x="-20" y="-10" width="38" height="38">
<rect x="-19.3423" y="-9.67109" width="37.3422" height="37.3422" fill="#D9D9D9"/>
</mask>
<g mask="url(#mask0_0_39)">
<path d="M5.37725 16.4804C5.0049 16.4804 4.68748 16.3478 4.42498 16.0827C4.16248 15.8175 4.03123 15.4987 4.03123 15.1264C4.03123 14.7541 4.1638 14.4366 4.42895 14.1741C4.69411 13.9116 5.01286 13.7804 5.3852 13.7804C5.75755 13.7804 6.07497 13.913 6.33747 14.1781C6.59997 14.4433 6.73122 14.762 6.73122 15.1344C6.73122 15.5067 6.59864 15.8241 6.33349 16.0866C6.06833 16.3491 5.74958 16.4804 5.37725 16.4804ZM12.8772 16.4804C12.5049 16.4804 12.1874 16.3478 11.9249 16.0827C11.6624 15.8175 11.5312 15.4987 11.5312 15.1264C11.5312 14.7541 11.6638 14.4366 11.9289 14.1741C12.1941 13.9116 12.5128 13.7804 12.8852 13.7804C13.2575 13.7804 13.5749 13.913 13.8374 14.1781C14.0999 14.4433 14.2312 14.762 14.2312 15.1344C14.2312 15.5067 14.0986 15.8241 13.8335 16.0866C13.5683 16.3491 13.2495 16.4804 12.8772 16.4804ZM4.40623 4.10544L6.46872 8.38041H11.8687L14.2124 4.10544H4.40623ZM3.84373 2.98044H14.8888C15.1759 2.98044 15.3943 3.11169 15.544 3.37419C15.6938 3.63669 15.6937 3.89919 15.5437 4.16168L13.0124 8.71791C12.8749 8.95541 12.6964 9.14604 12.477 9.28978C12.2575 9.43353 12.0172 9.50541 11.7562 9.50541H6.07497L5.02498 11.4554H13.6687C13.8281 11.4554 13.9616 11.5096 14.0695 11.6181C14.1773 11.7265 14.2312 11.8609 14.2312 12.0212C14.2312 12.1815 14.1773 12.3148 14.0695 12.421C13.9616 12.5273 13.8281 12.5804 13.6687 12.5804H5.19372C4.66873 12.5804 4.2906 12.4054 4.05936 12.0554C3.82811 11.7054 3.83123 11.3116 4.06873 10.8742L5.26872 8.66166L2.41874 2.62419H1.51874C1.35937 2.62419 1.22578 2.56997 1.11796 2.46154C1.01015 2.35309 0.956245 2.21871 0.956245 2.05841C0.956245 1.8981 1.01015 1.76482 1.11796 1.65857C1.22578 1.55232 1.35937 1.4992 1.51874 1.4992H2.79374C2.90624 1.4992 3.00749 1.52692 3.09748 1.58235C3.18748 1.63779 3.25498 1.71632 3.29998 1.81795L3.84373 2.98044Z" fill="#31304D"/>
</g>
</svg>
