<svg width="17" height="18" viewBox="0 0 17 18" fill="none" xmlns="http://www.w3.org/2000/svg">
<mask id="mask0_159_812" style="mask-type:alpha" maskUnits="userSpaceOnUse" x="-3" y="-4" width="24" height="26">
<rect x="-2.8816" y="-3.02942" width="23.0525" height="24.4412" fill="#D9D9D9"/>
</mask>
<g mask="url(#mask0_159_812)">
<path d="M6.19537 13.0353C4.46383 13.0353 2.99839 12.3988 1.79903 11.1259C0.599678 9.85287 0 8.31681 0 6.51766C0 4.71852 0.600326 3.18245 1.80098 1.90947C3.00163 0.63649 4.45442 0 6.15935 0C7.86427 0 9.31306 0.63649 10.5057 1.90947C11.6984 3.18245 12.2947 4.71979 12.2947 6.52148C12.2947 7.24878 12.1826 7.95189 11.9585 8.63081C11.7344 9.30973 11.3982 9.94623 10.95 10.5403L16.7611 16.6506C16.9052 16.7958 16.9772 16.9806 16.9772 17.2051C16.9772 17.4295 16.9052 17.6181 16.7611 17.7708C16.617 17.9236 16.4392 18 16.2275 18C16.0158 18 15.8415 17.9236 15.7045 17.7708L9.91739 11.635C9.43713 12.0763 8.87715 12.4201 8.23746 12.6662C7.59777 12.9123 6.91707 13.0353 6.19537 13.0353ZM6.17135 11.5077C7.47206 11.5077 8.57766 11.0198 9.48816 10.0438C10.3987 9.06787 10.8539 7.89248 10.8539 6.51766C10.8539 5.14284 10.3987 3.96746 9.48816 2.99151C8.57766 2.01555 7.47206 1.52758 6.17135 1.52758C4.85731 1.52758 3.74037 2.01555 2.82052 2.99151C1.9007 3.96746 1.44078 5.14284 1.44078 6.51766C1.44078 7.89248 1.9007 9.06787 2.82052 10.0438C3.74037 11.0198 4.85731 11.5077 6.17135 11.5077Z" fill="#1C1B1F"/>
</g>
</svg>
